<svg width="169" height="169" viewBox="0 0 169 169" fill="none" xmlns="http://www.w3.org/2000/svg">
<g opacity="0.2">
<path d="M84.5 21.125C71.6802 21.1251 59.1617 25.0131 48.5975 32.2758C38.0333 39.5384 29.9199 49.8341 25.3287 61.8036C20.7375 73.7731 19.8842 86.8536 22.8816 99.3182C25.8789 111.783 32.586 123.045 42.1172 131.619V131.618C46.0936 123.795 52.1581 117.226 59.6389 112.638C67.1196 108.05 75.7245 105.623 84.5 105.625C79.2774 105.625 74.172 104.076 69.8295 101.175C65.487 98.2732 62.1024 94.1491 60.1038 89.324C58.1052 84.4989 57.5823 79.1895 58.6012 74.0671C59.62 68.9448 62.135 64.2397 65.828 60.5467C69.521 56.8537 74.2261 54.3388 79.3484 53.3199C84.4707 52.301 89.7801 52.8239 94.6053 54.8226C99.4304 56.8212 103.554 60.2057 106.456 64.5482C109.358 68.8907 110.906 73.9961 110.906 79.2188C110.906 86.2221 108.124 92.9386 103.172 97.8908C98.2199 102.843 91.5034 105.625 84.5 105.625C93.2756 105.623 101.88 108.05 109.361 112.638C116.842 117.226 122.906 123.795 126.883 131.618C136.414 123.045 143.121 111.782 146.118 99.3176C149.116 86.8531 148.263 73.7727 143.671 61.8032C139.08 49.8337 130.967 39.5381 120.402 32.2755C109.838 25.013 97.3198 21.125 84.5 21.125Z" fill="#364BA5"/>
<path d="M84.5 105.625C75.7245 105.623 67.1196 108.05 59.6389 112.638C52.1581 117.226 46.0936 123.795 42.1172 131.618V131.619C32.586 123.045 25.8789 111.783 22.8816 99.3182C19.8842 86.8536 20.7375 73.7731 25.3287 61.8036C29.9199 49.8341 38.0333 39.5384 48.5975 32.2758C59.1617 25.0131 71.6802 21.1251 84.5 21.125C97.3198 21.125 109.838 25.013 120.402 32.2755C130.967 39.5381 139.08 49.8337 143.671 61.8032C148.263 73.7727 149.116 86.8531 146.118 99.3176C143.121 111.782 136.414 123.045 126.883 131.618C122.906 123.795 116.842 117.226 109.361 112.638C101.88 108.05 93.2756 105.623 84.5 105.625ZM84.5 105.625C79.2774 105.625 74.172 104.076 69.8295 101.175C65.487 98.2732 62.1024 94.1491 60.1038 89.324C58.1052 84.4989 57.5823 79.1895 58.6011 74.0671C59.62 68.9448 62.135 64.2397 65.828 60.5467C69.521 56.8537 74.2261 54.3388 79.3484 53.3199C84.4707 52.301 89.7801 52.8239 94.6053 54.8226C99.4304 56.8212 103.554 60.2057 106.456 64.5482C109.358 68.8907 110.906 73.9961 110.906 79.2188C110.906 86.2221 108.124 92.9386 103.172 97.8908C98.2199 102.843 91.5034 105.625 84.5 105.625Z" stroke="#2A376D"/>
</g>
<path d="M110.906 36.9688C110.906 35.5681 111.463 34.2248 112.453 33.2344C113.444 32.2439 114.787 31.6875 116.188 31.6875H126.75V21.125C126.75 19.7243 127.306 18.381 128.297 17.3906C129.287 16.4002 130.631 15.8437 132.031 15.8437C133.432 15.8437 134.775 16.4002 135.766 17.3906C136.756 18.381 137.312 19.7243 137.312 21.125V31.6875H147.875C149.276 31.6875 150.619 32.2439 151.609 33.2343C152.6 34.2248 153.156 35.5681 153.156 36.9688C153.156 38.3694 152.6 39.7127 151.609 40.7032C150.619 41.6936 149.276 42.25 147.875 42.25H137.312V52.8125C137.312 54.2132 136.756 55.5565 135.766 56.5469C134.775 57.5373 133.432 58.0937 132.031 58.0937C130.631 58.0937 129.287 57.5373 128.297 56.5469C127.306 55.5565 126.75 54.2132 126.75 52.8125V42.25H116.188C114.787 42.25 113.444 41.6936 112.453 40.7031C111.463 39.7127 110.906 38.3694 110.906 36.9688ZM152.307 73.677C152.873 77.257 153.156 80.8757 153.156 84.5C153.16 94.0273 151.176 103.451 147.331 112.168C143.486 120.885 137.865 128.704 130.826 135.125C130.567 135.416 130.275 135.678 129.957 135.904C117.424 147.019 101.253 153.156 84.5016 153.156C67.7503 153.157 51.5792 147.02 39.0454 135.906C38.725 135.678 38.4313 135.415 38.1698 135.121C27.9558 125.785 20.8027 113.58 17.6493 100.106C14.496 86.6323 15.4896 72.5201 20.4998 59.6212C25.5101 46.7223 34.3029 35.6394 45.7243 27.8269C57.1457 20.0144 70.6622 15.8373 84.5 15.8437C88.1243 15.8436 91.743 16.1275 95.323 16.6928C96.008 16.8013 96.665 17.0436 97.2564 17.406C97.8478 17.7684 98.362 18.2437 98.7697 18.8048C99.1773 19.366 99.4705 20.0019 99.6324 20.6763C99.7943 21.3508 99.8217 22.0505 99.7132 22.7355C99.6046 23.4206 99.3622 24.0775 98.9998 24.6689C98.6373 25.2602 98.1619 25.7744 97.6008 26.182C97.0396 26.5896 96.4036 26.8827 95.7292 27.0445C95.0547 27.2063 94.355 27.2337 93.67 27.1251C90.6368 26.6463 87.5707 26.4059 84.5 26.4062C73.302 26.3999 62.3411 29.6318 52.9381 35.7127C43.535 41.7936 36.091 50.4639 31.5031 60.6788C26.9151 70.8938 25.379 82.2175 27.0799 93.2856C28.7807 104.354 33.6459 114.694 41.0892 123.06C46.9762 114.523 55.2583 107.92 64.8919 104.083C59.7179 100.007 55.9426 94.4205 54.0909 88.0996C52.2392 81.7788 52.4031 75.0381 54.56 68.8148C56.7168 62.5915 60.7592 57.1949 66.1252 53.3755C71.4912 49.5561 77.914 47.5038 84.5004 47.5038C91.0869 47.5039 97.5097 49.5563 102.876 53.3758C108.242 57.1953 112.284 62.5919 114.441 68.8153C116.597 75.0386 116.761 81.7794 114.909 88.1001C113.058 94.4209 109.282 100.008 104.108 104.083C113.742 107.92 122.024 114.523 127.911 123.06C137.378 112.448 142.605 98.721 142.594 84.5C142.594 81.4294 142.354 78.3634 141.875 75.3303C141.765 74.6446 141.791 73.9438 141.951 73.268C142.112 72.5923 142.405 71.955 142.813 71.3925C143.22 70.8301 143.735 70.3535 144.327 69.9902C144.919 69.6269 145.576 69.3839 146.262 69.2752C146.948 69.1664 147.649 69.1941 148.325 69.3566C149 69.5191 149.637 69.8132 150.198 70.2221C150.76 70.631 151.235 71.1466 151.597 71.7395C151.959 72.3323 152.2 72.9908 152.307 73.677ZM84.5 100.344C88.6781 100.344 92.7624 99.1048 96.2364 96.7835C99.7104 94.4623 102.418 91.163 104.017 87.3029C105.616 83.4428 106.034 79.1953 105.219 75.0975C104.404 70.9996 102.392 67.2355 99.4376 64.2811C96.4832 61.3267 92.7191 59.3148 88.6213 58.4997C84.5234 57.6845 80.2759 58.1029 76.4158 59.7018C72.5557 61.3007 69.2565 64.0083 66.9352 67.4823C64.614 70.9563 63.375 75.0406 63.375 79.2187C63.3814 84.8195 65.6091 90.189 69.5694 94.1494C73.5297 98.1097 78.8993 100.337 84.5 100.344ZM84.5 142.594C97.3946 142.607 109.923 138.307 120.093 130.38C116.27 124.409 111.006 119.496 104.786 116.093C98.5662 112.69 91.5901 110.906 84.5 110.906C77.4099 110.906 70.4338 112.69 64.2138 116.093C57.9938 119.496 52.7298 124.409 48.9065 130.38C59.0765 138.307 71.6053 142.607 84.5 142.594Z" fill="#19447C" stroke="#19447C"/>
</svg>
